<?xml version="1.0" ?><svg data-name="Layer 1" id="Layer_1" viewBox="0 0 64 64" xmlns="http://www.w3.org/2000/svg"><defs><style>.cls-1{fill:none;stroke:#37a849;stroke-linecap:round;stroke-linejoin:round;stroke-width:2px;}</style></defs><title/><path class="cls-1" d="M14,55V24.5A17.5,17.5,0,0,1,31.5,7h0A17.5,17.5,0,0,1,49,24.5V55"/><path class="cls-1" d="M19.78,42.2A13.42,13.42,0,0,1,18,35.5v-11a13.43,13.43,0,0,1,2.74-8.15"/><path class="cls-1" d="M44.26,39.92A13.49,13.49,0,0,1,23,46"/><line class="cls-1" x1="45" x2="45" y1="23" y2="36"/><path class="cls-1" d="M23.86,13.37a13.49,13.49,0,0,1,18.81,3.56"/><path class="cls-1" d="M41,29v6.5a9.51,9.51,0,0,1-5.66,8.69"/><path class="cls-1" d="M35.11,15.71A9.52,9.52,0,0,1,41,24.5"/><path class="cls-1" d="M22.75,20.81A9.51,9.51,0,0,1,31.5,15"/><line class="cls-1" x1="22" x2="22" y1="32" y2="25"/><path class="cls-1" d="M31.5,45A9.51,9.51,0,0,1,22,35.5"/><path class="cls-1" d="M28,39.71a5.49,5.49,0,0,1-2-4.21v-11a5.48,5.48,0,0,1,1.61-3.89"/><path class="cls-1" d="M37,35.5A5.51,5.51,0,0,1,31.5,41"/><line class="cls-1" x1="37" x2="37" y1="25" y2="32"/><path class="cls-1" d="M31.5,19a5.48,5.48,0,0,1,3.89,1.61"/><path class="cls-1" d="M33,35.5a1.5,1.5,0,0,1-3,0V29"/><path class="cls-1" d="M30,24.5a1.5,1.5,0,0,1,3,0V31"/></svg>