<svg version="1.1" viewBox="0.0 0.0 958.9553805774278 257.7165354330709" fill="none" stroke="none" stroke-linecap="square" stroke-miterlimit="10" xmlns:xlink="http://www.w3.org/1999/xlink" xmlns="http://www.w3.org/2000/svg"><clipPath id="p.0"><path d="m0 0l958.9554 0l0 257.71652l-958.9554 0l0 -257.71652z" clip-rule="nonzero"/></clipPath><g clip-path="url(#p.0)"><path fill="#000000" fill-opacity="0.0" d="m0 0l958.9554 0l0 257.71652l-958.9554 0z" fill-rule="evenodd"/><path fill="#000000" fill-opacity="0.0" d="m0 0l961.7323 0l0 261.7953l-961.7323 0z" fill-rule="evenodd"/><path fill="#ffd96a" d="m70.71875 122.875l29.59375 -64.0625l32.03125 0l-46.6875 90.625l0 51.5625l-29.78125 0l0 -51.5625l-46.671875 -90.625l32.125 0l29.390625 64.0625zm62.01953 24.3125q0 -15.71875 6.046875 -28.015625q6.0625 -12.3125 17.4375 -19.046875q11.375 -6.75 26.40625 -6.75q21.390625 0 34.90625 13.09375q13.53125 13.078125 15.09375 35.546875l0.203125 7.21875q0 24.328125 -13.578125 39.03125q-13.578125 14.6875 -36.4375 14.6875q-22.84375 0 -36.46875 -14.640625q-13.609375 -14.65625 -13.609375 -39.859375l0 -1.265625zm28.21875 2.046875q0 15.046875 5.65625 23.015625q5.671875 7.953125 16.21875 7.953125q10.25 0 16.015625 -7.859375q5.765625 -7.875 5.765625 -25.15625q0 -14.75 -5.765625 -22.84375q-5.765625 -8.109375 -16.21875 -8.109375q-10.34375 0 -16.015625 8.0625q-5.65625 8.046875 -5.65625 24.9375zm152.53906 41.015625q-10.453125 12.703125 -28.90625 12.703125q-17.0 0 -25.9375 -9.765625q-8.921875 -9.765625 -9.125 -28.609375l0 -69.25l28.21875 0l0 68.265625q0 16.5 15.046875 16.5q14.359375 0 19.71875 -9.953125l0 -74.8125l28.328125 0l0 105.671875l-26.5625 0l-0.78125 -10.75zm108.00781 -68.453125q-5.765625 -0.78125 -10.15625 -0.78125q-16.015625 0 -21.0 10.84375l0 69.140625l-28.21875 0l0 -105.671875l26.65625 0l0.78125 12.609375q8.5 -14.5625 23.53125 -14.5625q4.6875 0 8.796875 1.28125l-0.390625 27.140625zm65.23828 79.203125l0 -142.1875l43.75 0q18.75 0 33.53125 8.453125q14.796875 8.4375 23.09375 24.015625q8.3125 15.578125 8.3125 35.40625l0 6.53125q0 19.828125 -8.15625 35.265625q-8.15625 15.421875 -23.0 23.921875q-14.84375 8.5 -33.5 8.59375l-44.03125 0zm29.296875 -118.453125l0 94.921875l14.15625 0q17.1875 0 26.265625 -11.234375q9.078125 -11.234375 9.28125 -32.125l0 -7.53125q0 -21.671875 -8.984375 -32.84375q-8.984375 -11.1875 -26.265625 -11.1875l-14.453125 0zm94.43359 64.640625q0 -15.71875 6.046875 -28.015625q6.0625 -12.3125 17.4375 -19.046875q11.375 -6.75 26.40625 -6.75q21.390625 0 34.90625 13.09375q13.53125 13.078125 15.09375 35.546875l0.203125 7.21875q0 24.328125 -13.578125 39.03125q-13.578125 14.6875 -36.4375 14.6875q-22.84375 0 -36.46875 -14.640625q-13.609375 -14.65625 -13.609375 -39.859375l0 -1.265625zm28.21875 2.046875q0 15.046875 5.65625 23.015625q5.671875 7.953125 16.21875 7.953125q10.25 0 16.015625 -7.859375q5.765625 -7.875 5.765625 -25.15625q0 -14.75 -5.765625 -22.84375q-5.765625 -8.109375 -16.21875 -8.109375q-10.34375 0 -16.015625 8.0625q-5.65625 8.046875 -5.65625 24.9375zm85.14844 -1.84375q0 -24.328125 11.578125 -39.171875q11.578125 -14.84375 31.203125 -14.84375q17.375 0 27.046875 11.921875l1.171875 -9.96875l25.59375 0l0 102.15625q0 13.875 -6.3125 24.125q-6.296875 10.25 -17.71875 15.625q-11.421875 5.375 -26.75 5.375q-11.625 0 -22.671875 -4.640625q-11.03125 -4.640625 -16.6875 -11.96875l12.5 -17.1875q10.546875 11.8125 25.578125 11.8125q11.234375 0 17.484375 -6.0q6.25 -6.0 6.25 -17.046875l0 -5.65625q-9.765625 11.03125 -25.6875 11.03125q-19.03125 0 -30.8125 -14.890625q-11.765625 -14.890625 -11.765625 -39.5l0 -1.171875zm28.234375 2.046875q0 14.359375 5.75 22.515625q5.765625 8.140625 15.828125 8.140625q12.890625 0 18.453125 -9.65625l0 -44.4375q-5.65625 -9.671875 -18.265625 -9.671875q-10.15625 0 -15.96875 8.3125q-5.796875 8.296875 -5.796875 24.796875zm138.66016 53.515625q-23.234375 0 -37.84375 -14.25q-14.59375 -14.265625 -14.59375 -38.0l0 -2.734375q0 -15.921875 6.15625 -28.46875q6.15625 -12.546875 17.421875 -19.328125q11.28125 -6.796875 25.734375 -6.796875q21.6875 0 34.140625 13.671875q12.453125 13.671875 12.453125 38.78125l0 11.515625l-67.296875 0q1.375 10.359375 8.25 16.609375q6.890625 6.25 17.4375 6.25q16.3125 0 25.484375 -11.828125l13.875 15.53125q-6.34375 8.984375 -17.1875 14.015625q-10.84375 5.03125 -24.03125 5.03125zm-3.21875 -86.71875q-8.390625 0 -13.625 5.671875q-5.21875 5.65625 -6.6875 16.203125l39.265625 0l0 -2.25q-0.203125 -9.375 -5.09375 -14.5q-4.875 -5.125 -13.859375 -5.125z" fill-rule="nonzero"/></g></svg>