<?xml version="1.0" ?><svg style="enable-background:new 0 0 50 50;" version="1.1" viewBox="0 0 50 50" xml:space="preserve" xmlns="http://www.w3.org/2000/svg" xmlns:xlink="http://www.w3.org/1999/xlink"><g id="Layer_1"><path d="M25,1c-2.872,0-5.68,0.502-8.348,1.492l0.696,1.875C19.792,3.46,22.367,3,25,3c12.131,0,22,9.869,22,22s-9.869,22-22,22   S3,37.131,3,25c0-6.595,2.963-12.795,8-16.958V15h2V5H3v2h6.126C3.993,11.53,1,18.068,1,25c0,13.233,10.767,24,24,24   s24-10.767,24-24S38.233,1,25,1z" fill="#deba04" /><path d="M19,33h-2v2h16v-2h-2v-3.414L26.414,25L31,20.414V17h2v-2H17v2h2v3.414L23.586,25L19,29.586V33z M21,19.586V17h8v2.586   l-4,4L21,19.586z M25,26.414l4,4V33h-8v-2.586L25,26.414z" fill="#deba04"/><rect height="2" width="2" x="19" y="39" fill="#deba04" /><rect height="2" width="2" x="24" y="39" fill="#deba04" /><rect height="2" width="2" x="29" y="39" fill="#deba04"/></g><g/></svg>